<?xml version="1.0" encoding="utf-8"?>
<!-- Generator: Adobe Illustrator 16.0.0, SVG Export Plug-In . SVG Version: 6.00 Build 0)  -->
<!DOCTYPE svg PUBLIC "-//W3C//DTD SVG 1.1//EN" "http://www.w3.org/Graphics/SVG/1.1/DTD/svg11.dtd">
<svg version="1.1" id="Layer_1" xmlns="http://www.w3.org/2000/svg" xmlns:xlink="http://www.w3.org/1999/xlink" x="0px" y="0px"
	viewBox="0 0 3500 3500" enable-background="new 0 0 3500 3500" xml:space="preserve">
<path id="path5148-3-3-9" fill="#EF7F1A" d="M3031.645,210.614
	c-23.434-0.404-47.445,2.745-71.938,9.244L418.31,900.636v0.278c-201.786,43.745-265.841,293.964-120.507,438.689l1844.914,1844.917
	c133.67,161.708,400.223,108.173,455.908-99.714l681.793-2544.451c0-0.142,0-0.142-1.398-0.278
	c44.969-167.323-83.637-327.072-247.713-329.463H3031.645z M2825.295,493.571c127.961,1.86,228.08,126.279,193,256.734
	c0,0.093,0,0.278,1.398,0.278l-531.436,1983.967c-43.451,162.096-251.217,203.696-355.439,77.618L694.178,1373.51
	c-113.246-112.779-63.342-307.799,93.787-342.064l1981.656-530.938c19.111-5.092,38.016-7.214,56.297-6.936H2825.295z
	 M2625.092,728.455c-13.752-0.278-27.994,1.271-42.391,5.151l-1493.887,400.396c-118.646,25.709-156.104,172.678-70.665,257.756
	l1084.501,1084.77c78.551,95.06,235.283,63.604,268.049-58.595l400.625-1495.698c0-0.043,0-0.278-1.396-0.278
	c26.445-98.35-48.975-192.104-145.457-193.519L2625.092,728.455z"/>
</svg>
