<?xml version="1.0" standalone="no"?>
<!DOCTYPE svg PUBLIC "-//W3C//DTD SVG 20010904//EN"
 "http://www.w3.org/TR/2001/REC-SVG-20010904/DTD/svg10.dtd">
<svg version="1.0" xmlns="http://www.w3.org/2000/svg"
 width="1052.000000pt" height="744.000000pt" viewBox="0 0 1052.000000 744.000000"
 preserveAspectRatio="xMidYMid meet">

<g transform="translate(0.000000,744.000000) scale(0.100000,-0.100000)"
fill="#000000" stroke="none">
<path d="M0 3720 l0 -3720 5260 0 5260 0 0 3720 0 3720 -5260 0 -5260 0 0
-3720z m8170 1636 c0 -221 6 -207 -90 -208 -61 0 -96 20 -116 67 -28 69 -10
158 40 191 19 12 39 15 71 12 l45 -6 0 63 c0 62 5 72 38 74 9 1 12 -44 12
-193z m883 188 c13 -13 -7 -34 -33 -34 -37 0 -60 -24 -60 -61 0 -28 2 -29 45
-29 38 0 45 -3 45 -20 0 -17 -7 -20 -45 -20 l-45 0 0 -115 c0 -108 -1 -115
-20 -115 -19 0 -20 7 -20 165 0 212 8 231 96 234 17 0 33 -2 37 -5z m-218 -44
c0 -16 -6 -26 -18 -28 -19 -4 -32 20 -23 44 9 25 41 13 41 -16z m310 0 c0 -29
-32 -41 -41 -16 -9 24 4 48 23 44 12 -2 18 -12 18 -28z m-3796 1 c8 -5 11 -16
8 -24 -4 -12 -16 -14 -46 -10 -58 8 -90 -3 -97 -32 -8 -33 7 -50 70 -82 68
-34 84 -50 92 -89 17 -90 -60 -141 -170 -113 -34 8 -46 16 -42 26 3 8 6 19 6
24 0 6 9 5 21 -1 30 -17 103 -17 123 -1 21 18 21 64 -2 84 -10 9 -36 24 -57
33 -64 26 -85 51 -85 101 0 66 31 93 107 93 32 0 64 -4 72 -9z m1397 -6 c69
-29 81 -140 20 -181 l-24 -15 39 -67 c45 -76 46 -82 20 -82 -13 0 -33 23 -62
70 -42 67 -45 70 -81 70 l-38 0 0 -70 c0 -63 -2 -70 -20 -70 -19 0 -20 7 -20
173 0 96 3 177 7 180 12 13 123 7 159 -8z m1656 -129 c15 -76 30 -141 32 -144
7 -7 19 24 53 140 23 82 31 98 48 98 17 0 26 -19 59 -121 25 -81 41 -117 47
-108 4 8 17 66 29 129 28 149 28 150 51 150 24 0 24 1 -6 -144 -39 -186 -48
-211 -76 -211 -22 0 -28 11 -64 119 l-40 118 -39 -121 c-35 -106 -43 -121 -62
-121 -18 0 -26 10 -38 48 -13 40 -66 286 -66 306 0 4 10 6 22 4 20 -3 25 -17
50 -142z m-2092 94 l0 -40 50 0 c43 0 50 -3 50 -19 0 -17 -8 -20 -47 -23 l-48
-3 -3 -57 c-2 -31 1 -71 6 -90 7 -29 12 -33 47 -36 39 -3 59 -18 49 -34 -3 -4
-27 -8 -53 -8 -79 0 -85 14 -89 187 -3 114 -1 147 10 154 23 15 28 10 28 -31z
m-710 -50 c8 -1 36 2 61 6 87 12 109 -24 109 -178 0 -79 -2 -88 -19 -88 -16 0
-19 11 -23 100 -6 115 -15 132 -67 128 l-36 -3 -3 -112 c-2 -103 -4 -113 -21
-113 -17 0 -20 10 -23 105 -3 116 -8 125 -65 125 l-33 0 0 -115 0 -115 -25 0
-25 0 0 129 c0 148 -4 142 95 136 33 -3 67 -5 75 -5z m389 -9 c24 -24 33 -82
29 -176 l-3 -70 -72 -3 c-88 -3 -113 14 -113 77 0 53 34 81 100 81 45 0 47 1
43 25 -7 35 -28 48 -73 47 -39 -2 -57 9 -45 28 3 6 31 10 61 10 40 0 59 -5 73
-19z m239 2 c-2 -13 -16 -19 -48 -23 l-45 -5 -3 -112 c-2 -105 -4 -113 -22
-113 -19 0 -20 7 -20 129 0 146 -5 138 88 140 46 1 53 -1 50 -16z m684 -83 c3
-59 10 -105 18 -115 8 -9 29 -15 56 -15 l44 0 0 115 c0 108 1 115 20 115 19 0
20 -7 20 -130 0 -149 3 -144 -100 -138 -79 5 -94 29 -98 164 -4 98 -3 104 16
104 18 0 20 -9 24 -100z m412 94 c14 -5 16 -29 16 -156 0 -143 -1 -150 -23
-172 -42 -42 -157 -43 -165 -2 -3 16 2 17 45 12 61 -8 97 9 101 47 3 27 2 28
-32 21 -47 -8 -93 11 -111 47 -8 15 -15 53 -15 85 0 50 3 59 34 90 30 30 40
34 84 34 28 0 57 -3 66 -6z m274 0 c23 -7 23 -7 20 -154 -3 -129 -5 -151 -22
-169 -25 -27 -80 -42 -128 -35 -31 5 -38 11 -38 30 0 21 3 22 32 13 50 -14 67
-11 93 16 39 38 33 56 -17 49 -54 -6 -88 11 -110 56 -34 66 -12 160 42 187 27
14 90 17 128 7z m259 -9 c22 -16 43 -70 43 -112 0 -22 -4 -23 -85 -23 -47 0
-85 -4 -85 -10 0 -23 25 -60 44 -66 12 -4 40 -6 64 -5 31 1 42 -3 42 -13 0
-22 -14 -27 -69 -28 -86 0 -123 43 -123 142 1 51 18 92 51 117 22 17 92 16
118 -2z m983 -120 c0 -128 -1 -135 -20 -135 -19 0 -20 7 -20 135 0 128 1 135
20 135 19 0 20 -7 20 -135z m300 0 c0 -128 -1 -135 -20 -135 -19 0 -20 7 -20
135 0 128 1 135 20 135 19 0 20 -7 20 -135z m-5516 -1125 c3 0 33 7 68 16 171
44 335 -26 383 -165 24 -70 36 -243 33 -471 l-3 -205 -67 -3 -68 -3 0 258 c0
350 -15 413 -103 454 -47 21 -116 23 -192 5 l-50 -11 -3 -353 -2 -352 -70 0
-70 0 0 614 0 615 58 11 c31 6 62 12 67 14 6 2 11 -75 13 -211 1 -117 4 -213
6 -213z m6116 404 c48 -19 80 -61 87 -112 4 -27 -44 -221 -186 -752 -105 -393
-198 -730 -208 -748 -24 -47 -70 -72 -134 -72 l-54 0 -543 543 c-299 298 -550
555 -559 571 -32 61 -3 154 60 188 10 5 192 56 405 113 567 152 994 267 1022
275 40 13 67 11 110 -6z m-3548 -55 c27 -14 50 -73 42 -107 -10 -42 -43 -72
-80 -72 -46 0 -63 9 -79 41 -45 87 35 182 117 138z m-1367 -74 c171 -61 244
-175 233 -363 -13 -223 -159 -322 -475 -322 l-103 0 0 -210 0 -210 -70 0 -70
0 0 554 0 555 48 6 c26 4 52 8 57 11 6 2 82 2 170 0 121 -3 172 -8 210 -21z
m-3872 -142 c72 -149 133 -289 197 -448 16 -38 38 -92 50 -120 l21 -50 45 110
c88 216 157 372 226 518 l71 147 63 0 c73 0 69 6 78 -120 28 -362 36 -480 45
-645 6 -104 14 -227 17 -272 l5 -83 -69 0 -70 0 -6 138 c-28 591 -37 725 -48
714 -12 -12 -137 -294 -228 -514 l-73 -178 -57 0 -58 0 -23 58 c-102 257 -267
632 -279 632 -7 0 -25 -274 -40 -625 -5 -121 -10 -221 -10 -222 0 -2 -31 -3
-70 -3 l-70 0 5 73 c3 39 10 164 15 277 14 275 42 649 56 738 l5 32 63 0 62 0
77 -157z m6487 7 l0 -130 145 0 145 0 0 -60 0 -60 -146 0 -146 0 4 -252 c3
-272 7 -295 60 -332 29 -21 146 -21 195 -1 19 8 36 15 38 15 6 0 25 -111 21
-119 -13 -21 -107 -42 -183 -42 -132 1 -185 28 -228 115 -38 78 -46 192 -43
611 l3 360 50 11 c91 22 85 31 85 -116z m-5025 -127 c127 -43 204 -197 205
-410 l0 -53 -266 0 -267 0 7 -46 c12 -94 63 -169 136 -201 47 -21 198 -21 265
1 27 8 50 14 51 13 1 -1 6 -29 9 -63 l7 -61 -63 -18 c-94 -27 -246 -25 -320 4
-105 40 -183 133 -215 255 -19 72 -18 249 2 317 41 138 115 225 224 262 60 21
165 21 225 0z m760 6 c89 -15 89 -15 74 -88 -10 -51 -15 -61 -28 -55 -85 37
-186 43 -248 15 -48 -22 -63 -45 -63 -95 0 -56 36 -88 161 -142 178 -78 229
-136 229 -261 0 -85 -28 -146 -85 -185 -55 -39 -169 -62 -263 -53 -80 7 -187
36 -187 50 2 41 19 115 26 115 5 0 38 -9 72 -21 82 -28 222 -24 264 7 54 41
49 123 -11 169 -18 14 -77 46 -131 71 -120 56 -160 85 -186 136 -70 136 0 293
151 339 38 11 155 10 225 -2z m2472 -11 c39 -14 74 -37 108 -72 86 -86 125
-192 125 -341 0 -201 -78 -348 -219 -413 -75 -35 -201 -38 -272 -5 -131 59
-213 193 -226 369 -20 281 129 482 359 484 45 0 86 -7 125 -22z m1276 -12 c62
-30 100 -74 131 -150 19 -47 21 -75 24 -363 l4 -313 -66 0 -66 0 0 213 c-1
453 -25 512 -215 512 -49 -1 -102 -4 -117 -8 l-28 -7 0 -355 0 -355 -65 0 -65
0 0 409 0 410 73 15 c107 23 123 24 233 22 87 -2 110 -6 157 -30z m-703 -406
l0 -420 -70 0 -70 0 0 420 0 420 70 0 70 0 0 -420z"/>
<path d="M8014 5354 c-22 -32 -22 -105 -1 -137 16 -25 45 -35 85 -29 21 3 22
8 22 92 0 95 -3 100 -61 100 -20 0 -34 -8 -45 -26z"/>
<path d="M6627 5463 c-4 -3 -7 -35 -7 -71 l0 -64 56 4 c63 5 84 23 84 69 0 37
-42 69 -90 69 -20 0 -40 -3 -43 -7z"/>
<path d="M5913 5272 c-51 -8 -58 -69 -10 -85 15 -5 39 -6 53 -3 22 6 25 11 22
43 -3 38 -23 52 -65 45z"/>
<path d="M7201 5354 c-42 -53 -13 -154 44 -154 51 0 55 7 55 96 l0 84 -39 0
c-31 0 -44 -6 -60 -26z"/>
<path d="M7476 5358 c-25 -38 -28 -73 -12 -111 17 -41 53 -56 92 -38 22 10 24
16 24 91 l0 80 -45 0 c-35 0 -48 -5 -59 -22z"/>
<path d="M7773 5379 c-21 -8 -43 -37 -43 -58 0 -7 24 -11 60 -11 51 0 60 3 60
18 0 39 -39 65 -77 51z"/>
<path d="M8977 4261 c-428 -116 -553 -153 -572 -171 -30 -28 -41 -79 -25 -111
7 -13 195 -207 419 -432 433 -434 434 -435 501 -407 16 7 35 22 43 34 15 22
307 1099 307 1130 0 48 -64 108 -112 105 -7 0 -260 -67 -561 -148z"/>
<path d="M4498 4324 c-16 -5 -18 -25 -18 -226 l0 -221 128 5 c176 7 244 37
283 123 36 78 17 209 -37 257 -48 42 -115 61 -229 64 -60 2 -118 1 -127 -2z"/>
<path d="M2236 4056 c-70 -26 -125 -99 -140 -189 l-7 -37 193 2 193 3 -3 45
c-4 56 -49 139 -88 162 -42 25 -103 30 -148 14z"/>
<path d="M5429 4037 c-115 -60 -163 -280 -98 -452 60 -161 261 -193 352 -56
53 80 72 220 46 341 -14 66 -64 139 -114 167 -54 31 -127 31 -186 0z"/>
</g>
</svg>
