<?xml version="1.0" encoding="utf-8"?>
<!-- Generator: Adobe Illustrator 16.0.0, SVG Export Plug-In . SVG Version: 6.00 Build 0)  -->
<!DOCTYPE svg PUBLIC "-//W3C//DTD SVG 1.1//EN" "http://www.w3.org/Graphics/SVG/1.1/DTD/svg11.dtd">
<svg version="1.1" id="Layer_1" xmlns="http://www.w3.org/2000/svg" xmlns:xlink="http://www.w3.org/1999/xlink" x="0px" y="0px"
	viewBox="0 0 1200 400" enable-background="new 0 0 1200 400" xml:space="preserve">
<polygon fill="#FFFFFF" points="940,183.349 1099.112,342.454 1121.38,316.622 1159.533,203.945 1168.229,99.609 940,160.852 "/>
<path id="path5148-3-3-9" fill="#EF7F1A" d="M1166.201,86.743
	c-2.045-0.036-4.139,0.239-6.277,0.807l-221.731,59.396v0.024c-17.605,3.817-23.194,25.648-10.514,38.275l160.965,160.965
	c11.664,14.108,34.919,9.438,39.777-8.7l59.485-221.998c0-0.013,0-0.013-0.122-0.024c3.923-14.599-7.297-28.537-21.612-28.745
	H1166.201z M1148.197,111.431c11.165,0.162,19.899,11.017,16.839,22.399c0,0.009,0,0.025,0.123,0.025l-46.368,173.098
	c-3.79,14.142-21.918,17.771-31.01,6.771l-125.52-125.52c-9.881-9.84-5.526-26.855,8.184-29.845l172.895-46.323
	c1.667-0.444,3.317-0.63,4.912-0.605H1148.197z M1130.729,131.924c-1.199-0.025-2.441,0.11-3.698,0.449l-130.339,34.934
	c-10.351,2.243-13.619,15.065-6.165,22.488l94.621,94.644c6.854,8.295,20.528,5.55,23.387-5.113l34.953-130.496
	c0-0.003,0-0.024-0.121-0.024c2.307-8.581-4.273-16.761-12.69-16.884L1130.729,131.924z"/>
<text transform="matrix(0.9636 0 0 1 30.2529 262.2813)" fill="#FFFFFF" font-family="'Ubuntu'" font-size="193.0311" letter-spacing="-1.038">MeshPoint</text>
</svg>
